<svg viewBox="0 0 220 110" xmlns="http://www.w3.org/2000/svg">
  <rect x="2.176" y="0.866" width="215.338" height="106.903" style="fill: rgb(255, 255, 255);"></rect>
  <rect x="136.617" y="76.69" width="76.459" height="27.199" style="fill: rgb(204, 255, 213);"></rect>
  <text style="font-family: &quot;Open Sans&quot;; font-size: 16.2px; white-space: pre;" x="139.668" y="96.102">Plattform</text>
  <rect x="55.979" y="5.426" width="93.589" height="27.199" style="fill: rgb(255, 239, 166);"></rect>
  <text style="font-family: &quot;Open Sans&quot;; font-size: 16.2px; white-space: pre;" x="60.03" y="24.838">Regulatorik</text>
  <rect x="6.285" y="76.69" width="73.397" height="27.199" style="fill: rgb(195, 195, 255);"></rect>
  <text style="font-family: &quot;Open Sans&quot;; font-size: 16.2px; white-space: pre;" x="9.336" y="96.102">Produkt</text>
  <path d="M 126.418 89.91 L 119.104 83.911 C 118.812 83.684 118.351 83.689 118.072 83.923 C 117.803 84.157 117.803 84.523 118.072 84.757 L 124.135 89.73 L 94.017 89.73 L 100.08 84.757 C 100.358 84.517 100.351 84.139 100.066 83.911 C 99.781 83.689 99.335 83.689 99.05 83.911 L 91.735 89.91 C 91.451 90.144 91.451 90.522 91.735 90.756 L 99.05 96.754 C 99.342 96.982 99.803 96.976 100.08 96.742 C 100.351 96.508 100.351 96.142 100.08 95.908 L 94.017 90.936 L 124.128 90.936 L 118.065 95.908 C 117.773 96.136 117.765 96.52 118.051 96.754 C 118.328 96.994 118.797 97 119.082 96.766 C 119.09 96.76 119.097 96.754 119.097 96.754 L 126.411 90.756 C 126.703 90.528 126.703 90.144 126.418 89.91 Z" style=""></path>
  <path d="M 175.777 54.05 L 168.463 48.051 C 168.171 47.824 167.71 47.829 167.431 48.063 C 167.162 48.297 167.162 48.663 167.431 48.897 L 173.494 53.87 L 143.376 53.87 L 149.439 48.897 C 149.717 48.657 149.71 48.279 149.425 48.051 C 149.14 47.829 148.694 47.829 148.409 48.051 L 141.094 54.05 C 140.81 54.284 140.81 54.662 141.094 54.896 L 148.409 60.894 C 148.701 61.122 149.162 61.116 149.439 60.882 C 149.71 60.648 149.71 60.282 149.439 60.048 L 143.376 55.076 L 173.487 55.076 L 167.424 60.048 C 167.132 60.276 167.124 60.66 167.41 60.894 C 167.687 61.134 168.156 61.14 168.441 60.906 C 168.449 60.9 168.456 60.894 168.456 60.894 L 175.77 54.896 C 176.062 54.668 176.062 54.284 175.777 54.05 Z" style="" transform="matrix(0.657498, 0.753457, -0.753457, 0.657498, 95.313521, -100.714372)"></path>
  <path d="M 65.529 54.287 L 58.215 48.288 C 57.923 48.061 57.462 48.066 57.183 48.3 C 56.914 48.534 56.914 48.9 57.183 49.134 L 63.246 54.107 L 33.128 54.107 L 39.191 49.134 C 39.469 48.894 39.462 48.516 39.177 48.288 C 38.892 48.066 38.446 48.066 38.161 48.288 L 30.846 54.287 C 30.562 54.521 30.562 54.899 30.846 55.133 L 38.161 61.131 C 38.453 61.359 38.914 61.353 39.191 61.119 C 39.462 60.885 39.462 60.519 39.191 60.285 L 33.128 55.313 L 63.239 55.313 L 57.176 60.285 C 56.884 60.513 56.876 60.897 57.162 61.131 C 57.439 61.371 57.908 61.377 58.193 61.143 C 58.201 61.137 58.208 61.131 58.208 61.131 L 65.522 55.133 C 65.814 54.905 65.814 54.521 65.529 54.287 Z" style="" transform="matrix(-0.644403, 0.764686, -0.764686, -0.644403, 121.081618, 53.130091)"></path>
</svg>
